<svg xmlns="http://www.w3.org/2000/svg" width="64" height="64" viewBox="0 0 24 24">
    <path fill="currentColor" d="M6.616 21q-.691 0-1.153-.462T5 19.385V4.615q0-.69.463-1.152T6.616 3h7.17q.366 0 .69.153q.324.152.547.438l3.598 4.301q.18.224.28.488t.099.557v9.832q0 .543-.497.744t-.876-.179l-3.896-3.884q-.425.294-.84.422Q12.477 16 12 16q-1.237 0-2.119-.881T9 13t.877-2.119T12 10t2.123.881T15 13q0 .517-.137.93t-.413.8l3.55 3.6V8.7L14.05 4H6.616q-.231 0-.424.192T6 4.615v14.77q0 .23.192.423t.423.192h8.614q.25 0 .375.155t.125.341t-.125.345t-.375.159zm6.797-6.587Q14 13.825 14 13t-.587-1.412T12 11t-1.412.588T10 13t.588 1.413T12 15t1.413-.587M12 12.5" />
</svg>